<svg width="24" height="24" viewBox="0 0 24 24" fill="none" xmlns="http://www.w3.org/2000/svg">
<path d="M9.60447 15.0198C11.5166 16.9319 14.6497 19.393 17.51 21.1645C18.9417 22.0512 20.2814 22.7503 21.3505 23.1249C21.8868 23.3129 22.3277 23.4092 22.6634 23.4195C23.0037 23.4299 23.1611 23.3513 23.2329 23.2796C23.3046 23.2078 23.3832 23.0504 23.3728 22.7101C23.3625 22.3744 23.2662 21.9335 23.0782 21.3972C22.7036 20.3281 22.0046 18.9884 21.1178 17.5566C19.3463 14.6964 16.8852 11.5633 14.9731 9.65117C9.87582 4.55385 6.76469 2.12698 4.75043 1.16735C3.75244 0.691888 3.07489 0.602041 2.5848 0.68083C2.10281 0.758319 1.72516 1.01102 1.34474 1.39144C0.964325 1.77185 0.711627 2.1495 0.634138 2.6315C0.555348 3.12158 0.645196 3.79913 1.12066 4.79712C2.08028 6.81139 4.50716 9.92251 9.60447 15.0198Z" stroke="#B4B4B4"/>
<circle cx="1" cy="1" r="1" transform="matrix(0 1 1 0 5.02907 4.82843)" fill="#1DD1B1"/>
<circle cx="1" cy="1" r="1" transform="matrix(0 1 1 0 7.73618 7.53552)" fill="#1DD1B1"/>
<circle cx="1" cy="1" r="1" transform="matrix(0 1 1 0 10.4433 10.2426)" fill="#1DD1B1"/>
<circle cx="1" cy="1" r="1" transform="matrix(0 1 1 0 13.1504 12.9497)" fill="#1DD1B1"/>
<circle cx="1" cy="1" r="1" transform="matrix(0 1 1 0 15.8575 15.6569)" fill="#1DD1B1"/>
</svg>
