<svg width="24" height="24" viewBox="0 0 24 24" fill="none" xmlns="http://www.w3.org/2000/svg">
<path d="M9.58783 14.4122C11.3902 16.2146 14.3635 18.5515 17.0783 20.2329C18.4388 21.0755 19.6872 21.7237 20.6609 22.065C21.1514 22.2368 21.5175 22.311 21.7644 22.3186C21.8262 22.3205 21.8721 22.3181 21.9049 22.3145C21.9085 22.2817 21.9109 22.2358 21.909 22.174C21.9014 21.9271 21.8272 21.561 21.6554 21.0705C21.3141 20.0968 20.6659 18.8484 19.8233 17.4879C18.1419 14.7731 15.805 11.7998 14.0026 9.99743C9.11182 5.10666 6.18253 2.83819 4.33924 1.96002C3.43588 1.52964 2.89646 1.48444 2.56796 1.53725C2.25562 1.58746 1.98794 1.74884 1.66359 2.0732C1.33923 2.39755 1.17786 2.66523 1.12765 2.97756C1.07483 3.30607 1.12004 3.84549 1.55041 4.74885C2.42859 6.59214 4.69705 9.52143 9.58783 14.4122ZM21.9758 22.3C21.9757 22.3 21.9745 22.3004 21.9722 22.3015C21.9747 22.3006 21.9758 22.3001 21.9758 22.3ZM21.8919 22.3818C21.8908 22.3841 21.8903 22.3853 21.8904 22.3854C21.8905 22.3854 21.891 22.3843 21.8919 22.3818Z" stroke="#D9D9D9" stroke-width="2"/>
<circle cx="0.678823" cy="0.678823" r="0.678823" transform="matrix(-0.707107 0.707107 0.707107 0.707107 15.5458 15.5458)" fill="#1DD1B1"/>
<circle cx="0.678823" cy="0.678823" r="0.678823" transform="matrix(-0.707107 0.707107 0.707107 0.707107 13.6258 13.6258)" fill="#1DD1B1"/>
<circle cx="0.678823" cy="0.678823" r="0.678823" transform="matrix(-0.707107 0.707107 0.707107 0.707107 11.7058 11.7058)" fill="#1DD1B1"/>
<circle cx="0.678823" cy="0.678823" r="0.678823" transform="matrix(-0.707107 0.707107 0.707107 0.707107 9.78583 9.78583)" fill="#1DD1B1"/>
<circle cx="0.678823" cy="0.678823" r="0.678823" transform="matrix(-0.707107 0.707107 0.707107 0.707107 7.86578 7.86581)" fill="#1DD1B1"/>
<circle cx="0.678823" cy="0.678823" r="0.678823" transform="matrix(-0.707107 0.707107 0.707107 0.707107 5.9458 5.94583)" fill="#1DD1B1"/>
</svg>
