<svg width="24" height="24" viewBox="0 0 24 24" fill="none" xmlns="http://www.w3.org/2000/svg">
<path d="M20.9246 10.1063C22.5312 15.1277 22.8958 20.7318 22.977 23H1.02296C1.10419 20.7318 1.46875 15.1277 3.07539 10.1063C3.8838 7.57975 4.98336 5.27712 6.45672 3.62152C7.90727 1.99155 9.70412 1 12 1C14.2959 1 16.0927 1.99155 17.5433 3.62152C19.0166 5.27712 20.1162 7.57975 20.9246 10.1063Z" stroke="#D9D9D9" stroke-width="2"/>
<path d="M12 1.20001V7.20001" stroke="#D9D9D9" stroke-linecap="round"/>
<path d="M19.7678 8.07867L16.2322 12.3213" stroke="#D9D9D9" stroke-linecap="round"/>
<path d="M4 8.39999L7.53553 12.6426" stroke="#D9D9D9" stroke-linecap="round"/>
<path d="M10.7727 6L13 7.37647L11.4091 10.1294L11.087 8.03951L10.7727 6Z" fill="#1DD1B1"/>
<path d="M6 21.6C6.31818 12.4235 7.59091 8.75294 13 7.37647M13 7.37647L10.7727 6L11.4091 10.1294L13 7.37647Z" stroke="#1DD1B1"/>
</svg>
