<svg width="26" height="24" viewBox="0 0 26 24" fill="none" xmlns="http://www.w3.org/2000/svg">
<path d="M4.60001 5.51456L7.00001 7.8576" stroke="#B4B4B4" stroke-linecap="round" stroke-linejoin="round"/>
<path d="M21.4 5.51456L19 7.8576" stroke="#B4B4B4" stroke-linecap="round" stroke-linejoin="round"/>
<path d="M21.4 13.7152H25" stroke="#B4B4B4" stroke-linecap="round" stroke-linejoin="round"/>
<path d="M13 5.51456L13 1.99999" stroke="#B4B4B4" stroke-linecap="round" stroke-linejoin="round"/>
<path d="M21.4 21.9159L19 19.5728" stroke="#B4B4B4" stroke-linecap="round" stroke-linejoin="round"/>
<path d="M4.60001 21.9159L7.00001 19.5728" stroke="#B4B4B4" stroke-linecap="round" stroke-linejoin="round"/>
<path d="M1 13.7152H4.6" stroke="#B4B4B4" stroke-linecap="round" stroke-linejoin="round"/>
<path d="M4.51563 22C2.34352 19.8799 1 16.9507 1 13.7152C1 7.24508 6.37258 2 13 2C19.6274 2 25 7.24508 25 13.7152C25 16.9507 23.6565 19.8799 21.4844 22" stroke="#B4B4B4" stroke-linecap="round"/>
<path d="M19 14C19 10.7649 16.3137 8 13 8C9.68629 8 7 10.6225 7 13.8576C7 15.4754 7.67176 16.9399 8.75781 18M19 14L21 10M19 14L15 12" stroke="#1DD1B1" stroke-linecap="round"/>
</svg>
